<mxfile host="app.diagrams.net" modified="2023-06-05T17:33:05.801Z" agent="Mozilla/5.0 (Windows NT 10.0; Win64; x64) AppleWebKit/537.36 (KHTML, like Gecko) Chrome/114.0.0.0 Safari/537.36" version="21.3.7" etag="-VV-vYd0FPZMvuq2nrkB" type="github">
  <diagram name="第 1 页" id="oi82v30V9AXFJYxNHTpq">
    <mxGraphModel>
      <root>
        <mxCell id="0" />
        <mxCell id="1" parent="0" />
      </root>
    </mxGraphModel>
  </diagram>
</mxfile>
